[Header]
FileType HTR
DataType HTRS
FileVersion 1
NumSegments 64
NumFrames 3
DataFrameRate 24
EulerRotationOrder ZYX
CalibrationUnits mm
RotationUnits Degrees
GlobalAxisofGravity Y
BoneLengthAxis Y
ScaleFactor 1.0
[SegmentNames&Hierarchy]
Hips	GLOBAL
Spine	Hips
Spine1	Spine
Spine2	Spine1
Neck	Spine2
Head	Neck
LeftEye	Head
RightEye	Head
LeftShoulder	Spine2
LeftArm	LeftShoulder
LeftForeArm	LeftArm
LeftHand	LeftForeArm
LeftHandThumb1	LeftHand
LeftHandThumb2	LeftHandThumb1
LeftHandThumb3	LeftHandThumb2
LeftHandThumb4	LeftHandThumb3
LeftHandIndex1	LeftHand
LeftHandIndex2	LeftHandIndex1
LeftHandIndex3	LeftHandIndex2
LeftHandIndex4	LeftHandIndex3
LeftHandMiddle1	LeftHand
LeftHandMiddle2	LeftHandMiddle1
LeftHandMiddle3	LeftHandMiddle2
LeftHandMiddle4	LeftHandMiddle3
LeftHandRing1	LeftHand
LeftHandRing2	LeftHandRing1
LeftHandRing3	LeftHandRing2
LeftHandRing4	LeftHandRing3
LeftHandPinky1	LeftHand
LeftHandPinky2	LeftHandPinky1
LeftHandPinky3	LeftHandPinky2
LeftHandPinky4	LeftHandPinky3
RightShoulder	Spine2
RightArm	RightShoulder
RightForeArm	RightArm
RightHand	RightForeArm
RightHandPinky1	RightHand
RightHandPinky2	RightHandPinky1
RightHandPinky3	RightHandPinky2
RightHandPinky4	RightHandPinky3
RightHandRing1	RightHand
RightHandRing2	RightHandRing1
RightHandRing3	RightHandRing2
RightHandRing4	RightHandRing3
RightHandMiddle1	RightHand
RightHandMiddle2	RightHandMiddle1
RightHandMiddle3	RightHandMiddle2
RightHandMiddle4	RightHandMiddle3
RightHandIndex1	RightHand
RightHandIndex2	RightHandIndex1
RightHandIndex3	RightHandIndex2
RightHandIndex4	RightHandIndex3
RightHandThumb1	RightHand
RightHandThumb2	RightHandThumb1
RightHandThumb3	RightHandThumb2
RightHandThumb4	RightHandThumb3
LeftUpLeg	Hips
LeftLeg	LeftUpLeg
LeftFoot	LeftLeg
LeftToeBase	LeftFoot
RightUpLeg	Hips
RightLeg	RightUpLeg
RightFoot	RightLeg
RightToeBase	RightFoot
[BasePosition]
Hips	0	0	0	0	0	0	1
Spine	0	0	0	0	0	0	1
Spine1	0	0	0	0	0	0	1
Spine2	0	0	0	0	0	0	1
Neck	0	0	0	0	0	0	1
Head	0	0	0	0	0	0	1
LeftEye	0	0	0	0	0	0	1
RightEye	0	0	0	0	0	0	1
LeftShoulder	0	0	0	0	0	0	1
LeftArm	0	0	0	0	0	0	1
LeftForeArm	0	0	0	0	0	0	1
LeftHand	0	0	0	0	0	0	1
LeftHandThumb1	0	0	0	0	0	0	1
LeftHandThumb2	0	0	0	0	0	0	1
LeftHandThumb3	0	0	0	0	0	0	1
LeftHandThumb4	0	0	0	0	0	0	1
LeftHandIndex1	0	0	0	0	0	0	1
LeftHandIndex2	0	0	0	0	0	0	1
LeftHandIndex3	0	0	0	0	0	0	1
LeftHandIndex4	0	0	0	0	0	0	1
LeftHandMiddle1	0	0	0	0	0	0	1
LeftHandMiddle2	0	0	0	0	0	0	1
LeftHandMiddle3	0	0	0	0	0	0	1
LeftHandMiddle4	0	0	0	0	0	0	1
LeftHandRing1	0	0	0	0	0	0	1
LeftHandRing2	0	0	0	0	0	0	1
LeftHandRing3	0	0	0	0	0	0	1
LeftHandRing4	0	0	0	0	0	0	1
LeftHandPinky1	0	0	0	0	0	0	1
LeftHandPinky2	0	0	0	0	0	0	1
LeftHandPinky3	0	0	0	0	0	0	1
LeftHandPinky4	0	0	0	0	0	0	1
RightShoulder	0	0	0	0	0	0	1
RightArm	0	0	0	0	0	0	1
RightForeArm	0	0	0	0	0	0	1
RightHand	0	0	0	0	0	0	1
RightHandPinky1	0	0	0	0	0	0	1
RightHandPinky2	0	0	0	0	0	0	1
RightHandPinky3	0	0	0	0	0	0	1
RightHandPinky4	0	0	0	0	0	0	1
RightHandRing1	0	0	0	0	0	0	1
RightHandRing2	0	0	0	0	0	0	1
RightHandRing3	0	0	0	0	0	0	1
RightHandRing4	0	0	0	0	0	0	1
RightHandMiddle1	0	0	0	0	0	0	1
RightHandMiddle2	0	0	0	0	0	0	1
RightHandMiddle3	0	0	0	0	0	0	1
RightHandMiddle4	0	0	0	0	0	0	1
RightHandIndex1	0	0	0	0	0	0	1
RightHandIndex2	0	0	0	0	0	0	1
RightHandIndex3	0	0	0	0	0	0	1
RightHandIndex4	0	0	0	0	0	0	1
RightHandThumb1	0	0	0	0	0	0	1
RightHandThumb2	0	0	0	0	0	0	1
RightHandThumb3	0	0	0	0	0	0	1
RightHandThumb4	0	0	0	0	0	0	1
LeftUpLeg	0	0	0	0	0	0	1
LeftLeg	0	0	0	0	0	0	1
LeftFoot	0	0	0	0	0	0	1
LeftToeBase	0	0	0	0	0	0	1
RightUpLeg	0	0	0	0	0	0	1
RightLeg	0	0	0	0	0	0	1
RightFoot	0	0	0	0	0	0	1
RightToeBase	0	0	0	0	0	0	1
[Hips]
3	169.318634	1028.862793	-8.685174942	-39.35881424	83.52102661	-41.13831329	1.0
4	249.5405426	1024.322021	-12.13509369	-23.63508797	82.15666962	-26.0402317	1.0
5	331.7617493	1012.619934	-15.32093906	-12.77206707	80.24869537	-16.09482765	1.0
[Spine]
3	0	101.8159943	1.315000057	3.673453093	-8.040563583	3.03553915	1.0
4	0	101.8159943	1.315000057	3.431402922	-5.887399197	2.736702442	1.0
5	0	101.8159943	1.315000057	2.986895561	-3.983825207	2.580277205	1.0
[Spine1]
3	0	100.8349991	-10.00800037	1.258134246	-15.62293243	1.904095292	1.0
4	0	100.8349991	-10.00800037	1.158239365	-14.98171806	1.890681148	1.0
5	0	100.8349991	-10.00800037	0.8966134191	-14.42957592	1.938154697	1.0
[Spine2]
3	0	91	-13.73399925	1.00491178	-15.58423328	2.262297153	1.0
4	0	91	-13.73399925	0.906214118	-14.93803978	2.247601271	1.0
5	0	91	-13.73399925	0.6428037882	-14.38178825	2.292415142	1.0
[Neck]
3	0	166.7169952	-25.16200066	4.552947521	-6.154556274	0.9519488811	1.0
4	0	166.7169952	-25.16200066	4.566252708	-6.373655796	0.5451105237	1.0
5	0	166.7169952	-25.16200066	4.336855412	-6.467746258	-0.06786743551	1.0
[Head]
3	0	96.17900085	16.84999847	-15.55674648	-39.02285767	11.28871727	1.0
4	0	96.17900085	16.84999847	-16.49003983	-39.40317535	10.81469345	1.0
5	0	96.17900085	16.84999847	-16.864645	-39.54745483	9.811341286	1.0
[LeftEye]
3	30.6760006	64.09500122	92.83599854	0	0	0	1.0
4	30.6760006	64.09500122	92.83599854	0	0	0	1.0
5	30.6760006	64.09500122	92.83599854	0	0	0	1.0
[RightEye]
3	-30.6760006	64.09500122	92.83499908	0	0	0	1.0
4	-30.6760006	64.09500122	92.83499908	0	0	0	1.0
5	-30.6760006	64.09500122	92.83499908	0	0	0	1.0
[LeftShoulder]
3	45.70400238	109.4599991	-26.28000069	6.720923901	-20.77112389	-16.29948807	1.0
4	45.70400238	109.4599991	-26.28000069	6.688314438	-19.79211807	-16.76726913	1.0
5	45.70400238	109.4599991	-26.28000069	6.416646957	-18.1438427	-16.51490402	1.0
[LeftArm]
3	105.923996	-5.24600029	-22.32099915	-9.662852287	3.911560535	-63.53668213	1.0
4	105.923996	-5.24600029	-22.32099915	-16.00927162	10.17399311	-65.14338684	1.0
5	105.923996	-5.24600029	-22.32099915	-20.7058754	16.76613998	-67.78915405	1.0
[LeftForeArm]
3	278.414978	-0.0009999999311	0	-1.442825578e-06	-5.747196198	-0.000202999945	1.0
4	278.414978	-0.0009999999311	0	5.024831466e-07	-2.775371313	-0.0001963513641	1.0
5	278.414978	-0.0009999999311	0	-1.663993658e-06	-2.76273036	-0.0001835513103	1.0
[LeftHand]
3	283.2879944	0	0	23.39604759	-31.3874836	9.627073288	1.0
4	283.2879944	0	0	28.25034142	-27.37666702	8.283323288	1.0
5	283.2879944	0	0	27.98829651	-19.33454514	6.668414116	1.0
[LeftHandThumb1]
3	24.6609993	-15.75	26.8239994	7.328543663	0.8989521265	0.7723444104	1.0
4	24.6609993	-15.75	26.8239994	7.338853836	0.9235936403	0.7840041518	1.0
5	24.6609993	-15.75	26.8239994	7.336168289	0.9166644216	0.7802538276	1.0
[LeftHandThumb2]
3	32.29800034	-18.64699936	18.64699936	13.13888931	18.37182808	12.35102272	1.0
4	32.29800034	-18.64699936	18.64699936	13.71474075	15.84397888	13.18776894	1.0
5	32.29800034	-18.64699936	18.64699936	10.85355854	13.68986893	14.19986439	1.0
[LeftHandThumb3]
3	26.52600098	-15.31499958	15.31499958	3.858109474	2.095466614	-0.5047712922	1.0
4	26.52600098	-15.31499958	15.31499958	3.981698513	1.615394115	-0.4508381188	1.0
5	26.52600098	-15.31499958	15.31499958	3.558235884	2.919311523	0.03213922307	1.0
[LeftHandThumb4]
3	19.54599953	-11.28499985	11.28499985	0	0	0	1.0
4	19.54599953	-11.28499985	11.28499985	0	0	0	1.0
5	19.54599953	-11.28499985	11.28499985	0	0	0	1.0
[LeftHandIndex1]
3	91.09299469	-5.170999527	22.60099792	-0.8729013205	3.027602196	-10.4198761	1.0
4	91.09299469	-5.170999527	22.60099792	-0.3059558868	2.567845345	-5.102729797	1.0
5	91.09299469	-5.170999527	22.60099792	0.3399378359	1.580892324	1.286754012	1.0
[LeftHandIndex2]
3	36.76399994	0	0	0.01494533196	0.8139562607	-0.2267012	1.0
4	36.76399994	0	0	0.01812275872	0.7874256372	-0.0001607416052	1.0
5	36.76399994	0	0	0.0123233851	0.8323881626	-0.4094505608	1.0
[LeftHandIndex3]
3	28.83100128	0	0	-0.01929935813	-0.1753575355	-0.3652683198	1.0
4	28.83100128	0	0	-0.01918182336	-0.2112796009	-0.008137496188	1.0
5	28.83100128	0	0	-0.01953119785	-0.1487955004	-0.6293931603	1.0
[LeftHandIndex4]
3	23.92700005	0	0	0	0	0	1.0
4	23.92700005	0	0	0	0	0	1.0
5	23.92700005	0	0	0	0	0	1.0
[LeftHandMiddle1]
3	95.33399963	0	0	-1.605226159	8.363516808	-16.60176086	1.0
4	95.33399963	0	0	-1.127003074	8.64074707	-12.52078819	1.0
5	95.33399963	0	0	-0.6780734062	8.442668915	-8.544779778	1.0
[LeftHandMiddle2]
3	36.98199844	0	0	0.02330926247	0.8868349195	-0.6383430362	1.0
4	36.98199844	0	0	0.0342267938	0.8147398829	0.0001076370827	1.0
5	36.98199844	0	0	0.03161515668	0.8378529549	-0.1487037241	1.0
[LeftHandMiddle3]
3	29.50900078	0	0	-0.02201613784	-0.3947387338	6.753939629	1.0
4	29.50900078	0	0	-0.03426197171	-0.5072174072	7.890434742	1.0
5	29.50900078	0	0	-0.02561609074	-0.4300814569	7.110797405	1.0
[LeftHandMiddle4]
3	28.3390007	0	0	0	0	0	1.0
4	28.3390007	0	0	0	0	0	1.0
5	28.3390007	0	0	0	0	0	1.0
[LeftHandRing1]
3	91.04499817	-0.4390000105	-18.65100098	-2.170433998	12.30952549	-19.93777084	1.0
4	91.04499817	-0.4390000105	-18.65100098	-1.689855456	12.33573723	-15.92947197	1.0
5	91.04499817	-0.4390000105	-18.65100098	-1.341045022	12.43648052	-12.87818718	1.0
[LeftHandRing2]
3	31.54000092	0	0	0.004730908666	0.4216310382	-0.8009948134	1.0
4	31.54000092	0	0	0.001903433236	0.3388645053	-0.0001773425756	1.0
5	31.54000092	0	0	0.003184771631	0.3687404394	-0.2676789463	1.0
[LeftHandRing3]
3	29.37700081	0	0	-0.07235198468	-0.7143218517	7.185686111	1.0
4	29.37700081	0	0	-0.1074723825	-0.8597202301	8.68797493	1.0
5	29.37700081	0	0	-0.08282893896	-0.7594530582	7.650965214	1.0
[LeftHandRing4]
3	26.47500038	0	0	0	0	0	1.0
4	26.47500038	0	0	0	0	0	1.0
5	26.47500038	0	0	0	0	0	1.0
[LeftHandPinky1]
3	80.77799988	-4.887000084	-38.06099701	-2.260365963	16.55456543	-20.20536041	1.0
4	80.77799988	-4.887000084	-38.06099701	-1.70851779	16.14468575	-15.94626904	1.0
5	80.77799988	-4.887000084	-38.06099701	-1.547318816	15.60429382	-13.57926178	1.0
[LeftHandPinky2]
3	36	0	0	-0.007834572345	-0.06177686527	-1.162969589	1.0
4	36	0	0	-0.0004132063768	-0.1760788709	-0.01879668608	1.0
5	36	0	0	-0.005263609346	-0.09765551239	-0.8035841584	1.0
[LeftHandPinky3]
3	21.14200211	0	0	-0.05193335935	-0.4941290617	13.51884365	1.0
4	21.14200211	0	0	-0.07589258999	-0.6395043731	14.98760605	1.0
5	21.14200211	0	0	-0.05171108246	-0.4927007854	13.50431824	1.0
[LeftHandPinky4]
3	19.75699997	0	0	0	0	0	1.0
4	19.75699997	0	0	0	0	0	1.0
5	19.75699997	0	0	0	0	0	1.0
[RightShoulder]
3	-45.70000076	109.4620056	-26.28000069	3.891736031	0.3175884783	10.73186398	1.0
4	-45.70000076	109.4620056	-26.28000069	3.920046806	2.813185453	8.173150063	1.0
5	-45.70000076	109.4620056	-26.28000069	3.85027051	4.889392376	5.756873131	1.0
[RightArm]
3	-105.9280014	-5.248000145	-22.32099915	23.22866249	11.08746243	62.30691147	1.0
4	-105.9280014	-5.248000145	-22.32099915	27.69361877	16.47250748	60.54776764	1.0
5	-105.9280014	-5.248000145	-22.32099915	28.74669838	21.95561218	58.55994034	1.0
[RightForeArm]
3	-278.414978	0	0	1.824394189e-06	22.16174889	1.242478447e-05	1.0
4	-278.414978	0	0	-1.197805523e-05	27.40055084	-6.87896636e-06	1.0
5	-278.414978	0	0	-1.947136752e-06	32.33854675	6.313488029e-06	1.0
[RightHand]
3	-283.2879944	0	0.0009999999311	21.62454605	-2.195901632	9.13921833	1.0
4	-283.2879944	0	0.0009999999311	8.961040497	0.2071202248	7.917583942	1.0
5	-283.2879944	0	0.0009999999311	2.643568516	1.188853502	6.386716366	1.0
[RightHandPinky1]
3	-80.76699829	-4.885000229	-38.06000137	-4.992599487	-15.38443089	39.21218491	1.0
4	-80.76699829	-4.885000229	-38.06000137	-4.361251354	-14.79512405	36.27073669	1.0
5	-80.76699829	-4.885000229	-38.06000137	-4.042948246	-14.00770092	34.45720291	1.0
[RightHandPinky2]
3	-36	0	0.0009999999311	-0.4746036828	-1.812002659	20.57273674	1.0
4	-36	0	0.0009999999311	-0.3256390095	-1.437124848	16.53793526	1.0
5	-36	0	0.0009999999311	-0.2147841752	-1.092790723	12.92066765	1.0
[RightHandPinky3]
3	-21.14200211	0	0	-0.2838647366	1.379162669	8.046568871	1.0
4	-21.14200211	0	0	-0.2079669088	1.771212459	4.067253113	1.0
5	-21.14200211	0	0	-0.1630876362	2.127701759	0.4864228666	1.0
[RightHandPinky4]
3	-19.75699997	0	0	0	0	0	1.0
4	-19.75699997	0	0	0	0	0	1.0
5	-19.75699997	0	0	0	0	0	1.0
[RightHandRing1]
3	-91.03599548	-0.4390000105	-18.65100098	-3.832203865	-12.45296383	32.72498322	1.0
4	-91.03599548	-0.4390000105	-18.65100098	-3.385423422	-12.15097332	29.49778175	1.0
5	-91.03599548	-0.4390000105	-18.65100098	-3.118330956	-11.65085888	27.65024757	1.0
[RightHandRing2]
3	-31.54000092	0	0	-0.0920374468	-1.61425364	12.88575935	1.0
4	-31.54000092	0	0	-0.03672359884	-1.259961128	9.269798279	1.0
5	-31.54000092	0	0	-0.01082005631	-1.003513217	6.670956612	1.0
[RightHandRing3]
3	-29.37700081	0	0	-0.01453848742	1.065435767	7.931079865	1.0
4	-29.37700081	0	0	-0.0118287839	1.438578606	4.1834445	1.0
5	-29.37700081	0	0	-0.02699763514	1.733767867	1.214658022	1.0
[RightHandRing4]
3	-26.47500038	0	0	0	0	0	1.0
4	-26.47500038	0	0	0	0	0	1.0
5	-26.47500038	0	0	0	0	0	1.0
[RightHandMiddle1]
3	-95.32500458	0	0	-2.562730551	-6.201886654	24.46245003	1.0
4	-95.32500458	0	0	-2.221277237	-5.880541801	21.82629776	1.0
5	-95.32500458	0	0	-2.131133795	-5.589587212	21.14172745	1.0
[RightHandMiddle2]
3	-36.98199844	0	0	-0.2033486366	-1.77054143	9.644584656	1.0
4	-36.98199844	0	0	-0.1004578769	-1.437602639	6.206606388	1.0
5	-36.98199844	0	0	-0.04667050764	-1.227832079	4.071043968	1.0
[RightHandMiddle3]
3	-29.50900078	0	0	-0.07081402838	-0.8805450201	7.667824745	1.0
4	-29.50900078	0	0	-0.02791097015	-0.5314042568	4.133449554	1.0
5	-29.50900078	0	0	-0.01118890755	-0.2955856025	1.75838244	1.0
[RightHandMiddle4]
3	-28.3390007	0	0.0009999999311	0	0	0	1.0
4	-28.3390007	0	0.0009999999311	0	0	0	1.0
5	-28.3390007	0	0.0009999999311	0	0	0	1.0
[RightHandIndex1]
3	-91.08300018	-5.167999744	22.60099792	-0.6828329563	-1.230710864	10.42068386	1.0
4	-91.08300018	-5.167999744	22.60099792	-0.5264519453	-0.6424864531	7.635432243	1.0
5	-91.08300018	-5.167999744	22.60099792	-0.4961443245	-0.1750695705	7.043816566	1.0
[RightHandIndex2]
3	-36.76399994	0	0	-0.02497964352	-1.059381843	2.668871641	1.0
4	-36.76399994	0	0	0.01210129727	-0.8339508772	0.4249381423	1.0
5	-36.76399994	0	0	0.01814269088	-0.7830713987	9.068939835e-05	1.0
[RightHandIndex3]
3	-28.83100128	0	0	-0.1078737155	0.5714219213	6.477404118	1.0
4	-28.83100128	0	0	-0.07773396373	0.9447451234	2.753286839	1.0
5	-28.83100128	0	0	-0.07128810138	1.172242284	0.4905518591	1.0
[RightHandIndex4]
3	-23.92700005	0	0	0	0	0	1.0
4	-23.92700005	0	0	0	0	0	1.0
5	-23.92700005	0	0	0	0	0	1.0
[RightHandThumb1]
3	-24.64799881	-15.72700024	26.82600021	6.026345253	-2.269377947	-2.791677952	1.0
4	-24.64799881	-15.72700024	26.82600021	7.442392349	-0.3998887539	-0.4114575088	1.0
5	-24.64799881	-15.72700024	26.82600021	8.477808952	2.282555819	1.970544219	1.0
[RightHandThumb2]
3	-32.29800034	-18.64699936	18.64699936	5.440799713	-19.47574997	-10.56036663	1.0
4	-32.29800034	-18.64699936	18.64699936	3.775981665	-19.85308266	-10.78166199	1.0
5	-32.29800034	-18.64699936	18.64699936	2.200772762	-20.71146011	-10.82211685	1.0
[RightHandThumb3]
3	-26.52600098	-15.31399918	15.31399918	2.739952564	-11.74065685	-0.02361995541	1.0
4	-26.52600098	-15.31399918	15.31399918	2.653465033	-11.48244476	-0.09191399068	1.0
5	-26.52600098	-15.31399918	15.31399918	2.542676449	-11.15172482	-0.179485634	1.0
[RightHandThumb4]
3	-19.54599953	-11.28499985	11.28499985	0	0	0	1.0
4	-19.54599953	-11.28499985	11.28499985	0	0	0	1.0
5	-19.54599953	-11.28499985	11.28499985	0	0	0	1.0
[LeftUpLeg]
3	82.07800293	-67.51699829	-15.99599934	-28.70091248	1.69803226	1.654737711	1.0
4	82.07800293	-67.51699829	-15.99599934	-34.3595314	1.901060462	1.390936375	1.0
5	82.07800293	-67.51699829	-15.99599934	-37.33643723	3.009608269	1.166285634	1.0
[LeftLeg]
3	0	-443.7049866	2.845999956	57.31293106	1.635029674	10.63189316	1.0
4	0	-443.7049866	2.845999956	45.63877106	3.855690479	9.310301781	1.0
5	0	-443.7049866	2.845999956	28.73107147	4.620363235	6.056056023	1.0
[LeftFoot]
3	0	-444.2789917	-29.8219986	-5.012720585	4.391006947	-1.887620091	1.0
4	0	-444.2789917	-29.8219986	-6.566040516	2.44759655	-1.347804904	1.0
5	0	-444.2789917	-29.8219986	-6.671524525	1.01139617	-1.463593483	1.0
[LeftToeBase]
3	0	-87.28699493	107.1060028	0.8661657572	3.250918598e-05	-1.270189023e-05	1.0
4	0	-87.28699493	107.1060028	1.169438004	-4.960395927e-06	2.270450977e-06	1.0
5	0	-87.28699493	107.1060028	0.8626095653	-9.365798178e-06	-5.074880391e-06	1.0
[RightUpLeg]
3	-82.07800293	-67.51699829	-15.99599934	-1.466794252	-3.298549891	11.17249489	1.0
4	-82.07800293	-67.51699829	-15.99599934	2.844324112	-7.140120029	7.496575832	1.0
5	-82.07800293	-67.51699829	-15.99599934	7.244952679	-10.54846382	3.037783146	1.0
[RightLeg]
3	0	-443.7049866	2.861999989	9.218009949	-3.290488005	-3.84853673	1.0
4	0	-443.7049866	2.861999989	8.748472214	1.606068373	-1.075618267	1.0
5	0	-443.7049866	2.861999989	8.561903954	6.674034595	1.92562294	1.0
[RightFoot]
3	0	-444.2770081	-29.83799934	-5.321510315	-0.5769732594	-2.86590457	1.0
4	0	-444.2770081	-29.83799934	-7.798286438	-0.2120907605	-2.870081425	1.0
5	0	-444.2770081	-29.83799934	-10.76919079	-0.6576932669	-3.95792532	1.0
[RightToeBase]
3	0	-87.28699493	107.1060028	-7.846746922	1.677024102e-06	-3.346291805e-06	1.0
4	0	-87.28699493	107.1060028	-9.446780205	5.20400572e-05	-1.021844582e-05	1.0
5	0	-87.28699493	107.1060028	-9.81063652	8.179625866e-07	-9.007179642e-07	1.0
[EndOfFile]
